<?xml version="1.0" encoding="UTF-8" standalone="no"?>
<!-- Created with Inkscape (http://www.inkscape.org/) -->

<svg
   xmlns:dc="http://purl.org/dc/elements/1.1/"
   xmlns:cc="http://creativecommons.org/ns#"
   xmlns:rdf="http://www.w3.org/1999/02/22-rdf-syntax-ns#"
   xmlns:svg="http://www.w3.org/2000/svg"
   xmlns="http://www.w3.org/2000/svg"
   xmlns:xlink="http://www.w3.org/1999/xlink"
   xmlns:sodipodi="http://sodipodi.sourceforge.net/DTD/sodipodi-0.dtd"
   xmlns:inkscape="http://www.inkscape.org/namespaces/inkscape"
   width="64"
   height="64"
   viewBox="0 0 16.933333 16.933333"
   version="1.1"
   id="svg8425"
   inkscape:version="0.92.1 r15371"
   sodipodi:docname="ptasker.svg">
  <defs
     id="defs8419">
    <symbol
       id="BaggageCheckIn">
      <title
         id="title7790">Baggage Check In</title>
      <path
         inkscape:connector-curvature="0"
         d="m 8.2020833,3.7041667 a 0.79375,0.79375 0 0 0 -0.79375,0.79375 v 1.3229166 h -1.5875 V 15.345833 H 13.49375 V 5.8208333 H 11.641667 V 4.4979167 a 0.79375,0.79375 0 0 0 -0.79375,-0.79375 z m 0,0.79375 H 10.847917 V 5.8208333 H 8.2020833 Z M 3.96875,5.8208333 A 1.3229167,1.3229167 0 0 0 2.6458333,7.14375 v 6.879167 A 1.3229167,1.3229167 0 0 0 3.96875,15.345833 H 5.0270833 V 5.8208333 Z m 10.31875,0 v 9.5249997 h 0.79375 a 1.3229167,1.3229167 0 0 0 1.322917,-1.322916 V 7.14375 A 1.3229167,1.3229167 0 0 0 15.08125,5.8208333 Z"
         style="stroke:none;stroke-width:0.26458332"
         id="path7792" />
    </symbol>
    <symbol
       id="Parking">
      <title
         id="title7958">Parking</title>
      <path
         inkscape:connector-curvature="0"
         d="M 6.6145833,15.875 V 3.96875 H 10.31875 a 3.3072917,3.3072917 0 0 1 0,6.614583 H 7.9375"
         style="fill:none;stroke-width:2.64583325"
         id="path7960" />
    </symbol>
  </defs>
  <sodipodi:namedview
     id="base"
     pagecolor="#ffffff"
     bordercolor="#666666"
     borderopacity="1.0"
     inkscape:pageopacity="0.0"
     inkscape:pageshadow="2"
     inkscape:zoom="11.2"
     inkscape:cx="40.061542"
     inkscape:cy="31.886362"
     inkscape:document-units="mm"
     inkscape:current-layer="layer1"
     showgrid="false"
     units="px"
     width="64px"
     inkscape:pagecheckerboard="true"
     inkscape:window-width="1920"
     inkscape:window-height="1151"
     inkscape:window-x="0"
     inkscape:window-y="24"
     inkscape:window-maximized="1" />
  <metadata
     id="metadata8422">
    <rdf:RDF>
      <cc:Work
         rdf:about="">
        <dc:format>image/svg+xml</dc:format>
        <dc:type
           rdf:resource="http://purl.org/dc/dcmitype/StillImage" />
        <dc:title />
      </cc:Work>
    </rdf:RDF>
  </metadata>
  <g
     inkscape:label="Layer 1"
     inkscape:groupmode="layer"
     id="layer1"
     transform="translate(0,-280.06667)">
    <use
       id="use11675"
       transform="translate(-0.97328874,278.85242)"
       style="fill:#373e48;stroke:#000000"
       xlink:href="#BaggageCheckIn"
       x="0"
       y="0"
       width="100%"
       height="100%" />
    <use
       id="use11700"
       transform="matrix(0.45,0,0,0.45,4.3381642,285.32054)"
       style="fill:#373e48;stroke:#b7bec8"
       xlink:href="#Parking"
       x="0"
       y="0"
       width="100%"
       height="100%" />
  </g>
</svg>
